<svg width="726" height="126" viewBox="0 0 726 126" fill="none" xmlns="http://www.w3.org/2000/svg">
<g filter="url(#filter0_d_533_45)">
<path d="M36.1055 5.82227L43.3037 25.3867L51.0967 5.82227H58.9922L47.6719 34H39.2227L31.8604 15.0508L24.5186 34H16.0693L4.72852 5.82227H12.6445L20.2734 24.9766L27.6357 5.82227H36.1055ZM95.0654 32.6055C92.7549 33.3711 90.4443 33.918 88.1338 34.2461C85.8369 34.5879 83.4854 34.7588 81.0791 34.7588C78.0029 34.7588 75.2617 34.4307 72.8555 33.7744C70.4629 33.1045 68.4463 32.1406 66.8057 30.8828C65.165 29.625 63.9141 28.0869 63.0527 26.2686C62.1914 24.4502 61.7607 22.3926 61.7607 20.0957C61.7607 17.9629 62.1914 15.9873 63.0527 14.1689C63.9277 12.3369 65.1582 10.751 66.7441 9.41113C68.3438 8.05762 70.2715 7.00488 72.5273 6.25293C74.7832 5.4873 77.2988 5.10449 80.0742 5.10449C82.6309 5.10449 84.9688 5.45312 87.0879 6.15039C89.2207 6.83398 91.0459 7.85254 92.5635 9.20605C94.0947 10.5596 95.2773 12.2275 96.1113 14.21C96.959 16.1924 97.3828 18.4756 97.3828 21.0596V22.9463H69.6152C69.8613 23.835 70.2646 24.6484 70.8252 25.3867C71.3994 26.125 72.1719 26.7539 73.1426 27.2734C74.1133 27.793 75.3027 28.1963 76.7109 28.4834C78.1328 28.7705 79.8281 28.9141 81.7969 28.9141C83.1914 28.9141 84.5586 28.832 85.8984 28.668C87.2383 28.4902 88.4893 28.2646 89.6514 27.9912C90.8135 27.7041 91.8594 27.3896 92.7891 27.0479C93.7324 26.7061 94.4912 26.3643 95.0654 26.0225V32.6055ZM89.8154 17.3682C89.7471 16.6709 89.5352 15.9531 89.1797 15.2148C88.8379 14.4629 88.291 13.7861 87.5391 13.1846C86.7871 12.583 85.8027 12.0908 84.5859 11.708C83.3691 11.3115 81.8516 11.1133 80.0332 11.1133C78.3242 11.1133 76.8477 11.3252 75.6035 11.749C74.3594 12.1729 73.3135 12.6992 72.4658 13.3281C71.6318 13.957 70.9824 14.6338 70.5176 15.3584C70.0527 16.083 69.752 16.7529 69.6152 17.3682H89.8154ZM111.902 21.9414C111.902 23.1172 112.012 24.0811 112.23 24.833C112.449 25.5713 112.805 26.1592 113.297 26.5967C113.789 27.0342 114.425 27.335 115.204 27.499C115.997 27.6631 116.968 27.7451 118.116 27.7451H132.554V34H116.558C114.343 34 112.456 33.8223 110.897 33.4668C109.353 33.0977 108.088 32.5371 107.104 31.7852C106.119 31.0195 105.401 30.0557 104.95 28.8936C104.513 27.7314 104.294 26.3506 104.294 24.751V5.82227H111.902V21.9414ZM169.714 32.0723C168.729 32.4824 167.738 32.8516 166.74 33.1797C165.742 33.5078 164.71 33.7881 163.644 34.0205C162.577 34.2666 161.449 34.4512 160.26 34.5742C159.084 34.6973 157.819 34.7588 156.466 34.7588C153.595 34.7588 150.949 34.4512 148.529 33.8359C146.123 33.2207 144.045 32.2979 142.295 31.0674C140.559 29.8232 139.205 28.2783 138.234 26.4326C137.264 24.5732 136.778 22.4062 136.778 19.9316C136.778 17.457 137.264 15.2969 138.234 13.4512C139.205 11.5918 140.559 10.0469 142.295 8.81641C144.045 7.57227 146.123 6.64258 148.529 6.02734C150.949 5.41211 153.595 5.10449 156.466 5.10449C157.819 5.10449 159.084 5.16602 160.26 5.28906C161.449 5.41211 162.577 5.59668 163.644 5.84277C164.71 6.0752 165.742 6.35547 166.74 6.68359C167.738 7.01172 168.729 7.38086 169.714 7.79102V14.6406C168.935 14.2168 168.114 13.7998 167.253 13.3896C166.392 12.9658 165.441 12.5898 164.402 12.2617C163.363 11.9199 162.222 11.6465 160.978 11.4414C159.733 11.2227 158.332 11.1133 156.773 11.1133C154.381 11.1133 152.392 11.3594 150.806 11.8516C149.233 12.3438 147.976 13 147.032 13.8203C146.089 14.6406 145.426 15.584 145.043 16.6504C144.66 17.7031 144.469 18.7969 144.469 19.9316C144.469 20.6836 144.551 21.4287 144.715 22.167C144.879 22.8916 145.152 23.582 145.535 24.2383C145.918 24.8809 146.417 25.4756 147.032 26.0225C147.647 26.5693 148.413 27.041 149.329 27.4375C150.245 27.834 151.312 28.1484 152.528 28.3809C153.759 28.5996 155.174 28.709 156.773 28.709C158.332 28.709 159.733 28.6133 160.978 28.4219C162.222 28.2168 163.363 27.9502 164.402 27.6221C165.441 27.2939 166.392 26.9248 167.253 26.5146C168.114 26.0908 168.935 25.6602 169.714 25.2227V32.0723ZM213.272 19.9316C213.272 22.3516 212.828 24.4912 211.939 26.3506C211.051 28.1963 209.779 29.7412 208.125 30.9854C206.471 32.2295 204.461 33.1729 202.096 33.8154C199.744 34.4443 197.099 34.7588 194.159 34.7588C191.22 34.7588 188.561 34.4443 186.182 33.8154C183.816 33.1729 181.8 32.2295 180.132 30.9854C178.464 29.7412 177.179 28.1963 176.276 26.3506C175.374 24.4912 174.923 22.3516 174.923 19.9316C174.923 17.5117 175.374 15.3789 176.276 13.5332C177.179 11.6738 178.464 10.1221 180.132 8.87793C181.8 7.63379 183.816 6.69727 186.182 6.06836C188.561 5.42578 191.22 5.10449 194.159 5.10449C197.099 5.10449 199.744 5.42578 202.096 6.06836C204.461 6.69727 206.471 7.63379 208.125 8.87793C209.779 10.1221 211.051 11.6738 211.939 13.5332C212.828 15.3789 213.272 17.5117 213.272 19.9316ZM205.582 19.9316C205.582 18.8789 205.411 17.833 205.069 16.7939C204.741 15.7412 204.146 14.7979 203.285 13.9639C202.438 13.1299 201.275 12.4531 199.799 11.9336C198.322 11.4141 196.442 11.1543 194.159 11.1543C192.628 11.1543 191.281 11.2773 190.119 11.5234C188.957 11.7559 187.952 12.084 187.104 12.5078C186.257 12.9316 185.546 13.4307 184.972 14.0049C184.397 14.5654 183.939 15.1738 183.598 15.8301C183.256 16.4727 183.01 17.1494 182.859 17.8604C182.723 18.5576 182.654 19.248 182.654 19.9316C182.654 20.6289 182.723 21.333 182.859 22.0439C183.01 22.7549 183.256 23.4385 183.598 24.0947C183.939 24.7373 184.397 25.3389 184.972 25.8994C185.546 26.46 186.257 26.9521 187.104 27.376C187.952 27.7861 188.957 28.1143 190.119 28.3604C191.281 28.5928 192.628 28.709 194.159 28.709C196.442 28.709 198.322 28.4492 199.799 27.9297C201.275 27.4102 202.438 26.7334 203.285 25.8994C204.146 25.0654 204.741 24.1289 205.069 23.0898C205.411 22.0371 205.582 20.9844 205.582 19.9316ZM227.812 5.82227V8.91895C228.482 8.49512 229.207 8.05762 229.986 7.60645C230.779 7.15527 231.634 6.74512 232.55 6.37598C233.479 6.00684 234.471 5.70605 235.523 5.47363C236.59 5.22754 237.738 5.10449 238.969 5.10449C240.172 5.10449 241.225 5.23437 242.127 5.49414C243.029 5.74023 243.809 6.06836 244.465 6.47852C245.135 6.875 245.702 7.32617 246.167 7.83203C246.632 8.32422 247.035 8.81641 247.377 9.30859C248.348 8.67969 249.305 8.10547 250.248 7.58594C251.191 7.06641 252.142 6.62207 253.099 6.25293C254.056 5.88379 255.033 5.60352 256.031 5.41211C257.029 5.20703 258.068 5.10449 259.148 5.10449C260.871 5.10449 262.409 5.34375 263.763 5.82227C265.13 6.30078 266.285 6.95703 267.229 7.79102C268.172 8.625 268.89 9.60938 269.382 10.7441C269.888 11.8652 270.141 13.0684 270.141 14.3535V34H262.532V15.4404C262.532 14.6885 262.416 14.0391 262.184 13.4922C261.951 12.9453 261.637 12.501 261.24 12.1592C260.857 11.8174 260.399 11.5645 259.866 11.4004C259.347 11.2363 258.793 11.1543 258.205 11.1543C255.471 11.1543 252.354 12.3848 248.854 14.8457C248.895 15.0781 248.922 15.3516 248.936 15.666C248.963 15.9805 248.977 16.2949 248.977 16.6094V34H241.368V15.2764C241.368 14.5244 241.252 13.8887 241.02 13.3691C240.787 12.8359 240.466 12.4053 240.056 12.0771C239.659 11.749 239.194 11.5166 238.661 11.3799C238.142 11.2295 237.588 11.1543 237 11.1543C236.289 11.1543 235.537 11.2568 234.744 11.4619C233.965 11.667 233.172 11.9541 232.365 12.3232C231.572 12.6924 230.786 13.1299 230.007 13.6357C229.241 14.1416 228.51 14.6885 227.812 15.2764V34H220.204V5.82227H227.812ZM310.274 32.6055C307.964 33.3711 305.653 33.918 303.343 34.2461C301.046 34.5879 298.694 34.7588 296.288 34.7588C293.212 34.7588 290.471 34.4307 288.064 33.7744C285.672 33.1045 283.655 32.1406 282.015 30.8828C280.374 29.625 279.123 28.0869 278.262 26.2686C277.4 24.4502 276.97 22.3926 276.97 20.0957C276.97 17.9629 277.4 15.9873 278.262 14.1689C279.137 12.3369 280.367 10.751 281.953 9.41113C283.553 8.05762 285.48 7.00488 287.736 6.25293C289.992 5.4873 292.508 5.10449 295.283 5.10449C297.84 5.10449 300.178 5.45312 302.297 6.15039C304.43 6.83398 306.255 7.85254 307.772 9.20605C309.304 10.5596 310.486 12.2275 311.32 14.21C312.168 16.1924 312.592 18.4756 312.592 21.0596V22.9463H284.824C285.07 23.835 285.474 24.6484 286.034 25.3867C286.608 26.125 287.381 26.7539 288.352 27.2734C289.322 27.793 290.512 28.1963 291.92 28.4834C293.342 28.7705 295.037 28.9141 297.006 28.9141C298.4 28.9141 299.768 28.832 301.107 28.668C302.447 28.4902 303.698 28.2646 304.86 27.9912C306.022 27.7041 307.068 27.3896 307.998 27.0479C308.941 26.7061 309.7 26.3643 310.274 26.0225V32.6055ZM305.024 17.3682C304.956 16.6709 304.744 15.9531 304.389 15.2148C304.047 14.4629 303.5 13.7861 302.748 13.1846C301.996 12.583 301.012 12.0908 299.795 11.708C298.578 11.3115 297.061 11.1133 295.242 11.1133C293.533 11.1133 292.057 11.3252 290.812 11.749C289.568 12.1729 288.522 12.6992 287.675 13.3281C286.841 13.957 286.191 14.6338 285.727 15.3584C285.262 16.083 284.961 16.7529 284.824 17.3682H305.024ZM351.085 11.9541V34H343.477V11.9541H331.521V5.82227H363.062V11.9541H351.085ZM404.159 19.9316C404.159 22.3516 403.715 24.4912 402.826 26.3506C401.938 28.1963 400.666 29.7412 399.012 30.9854C397.357 32.2295 395.348 33.1729 392.982 33.8154C390.631 34.4443 387.985 34.7588 385.046 34.7588C382.106 34.7588 379.447 34.4443 377.068 33.8154C374.703 33.1729 372.687 32.2295 371.019 30.9854C369.351 29.7412 368.065 28.1963 367.163 26.3506C366.261 24.4912 365.81 22.3516 365.81 19.9316C365.81 17.5117 366.261 15.3789 367.163 13.5332C368.065 11.6738 369.351 10.1221 371.019 8.87793C372.687 7.63379 374.703 6.69727 377.068 6.06836C379.447 5.42578 382.106 5.10449 385.046 5.10449C387.985 5.10449 390.631 5.42578 392.982 6.06836C395.348 6.69727 397.357 7.63379 399.012 8.87793C400.666 10.1221 401.938 11.6738 402.826 13.5332C403.715 15.3789 404.159 17.5117 404.159 19.9316ZM396.469 19.9316C396.469 18.8789 396.298 17.833 395.956 16.7939C395.628 15.7412 395.033 14.7979 394.172 13.9639C393.324 13.1299 392.162 12.4531 390.686 11.9336C389.209 11.4141 387.329 11.1543 385.046 11.1543C383.515 11.1543 382.168 11.2773 381.006 11.5234C379.844 11.7559 378.839 12.084 377.991 12.5078C377.144 12.9316 376.433 13.4307 375.858 14.0049C375.284 14.5654 374.826 15.1738 374.484 15.8301C374.143 16.4727 373.896 17.1494 373.746 17.8604C373.609 18.5576 373.541 19.248 373.541 19.9316C373.541 20.6289 373.609 21.333 373.746 22.0439C373.896 22.7549 374.143 23.4385 374.484 24.0947C374.826 24.7373 375.284 25.3389 375.858 25.8994C376.433 26.46 377.144 26.9521 377.991 27.376C378.839 27.7861 379.844 28.1143 381.006 28.3604C382.168 28.5928 383.515 28.709 385.046 28.709C387.329 28.709 389.209 28.4492 390.686 27.9297C392.162 27.4102 393.324 26.7334 394.172 25.8994C395.033 25.0654 395.628 24.1289 395.956 23.0898C396.298 22.0371 396.469 20.9844 396.469 19.9316Z" fill="white"/>
</g>
<path d="M158.773 96.7969C157.648 97.2656 156.516 97.6875 155.375 98.0625C154.234 98.4375 153.055 98.7578 151.836 99.0234C150.617 99.3047 149.328 99.5156 147.969 99.6562C146.625 99.7969 145.18 99.8672 143.633 99.8672C140.352 99.8672 137.328 99.5156 134.562 98.8125C131.812 98.1094 129.438 97.0547 127.438 95.6484C125.453 94.2266 123.906 92.4609 122.797 90.3516C121.688 88.2266 121.133 85.75 121.133 82.9219C121.133 80.0938 121.688 77.625 122.797 75.5156C123.906 73.3906 125.453 71.625 127.438 70.2188C129.438 68.7969 131.812 67.7344 134.562 67.0312C137.328 66.3281 140.352 65.9766 143.633 65.9766C145.18 65.9766 146.625 66.0469 147.969 66.1875C149.328 66.3281 150.617 66.5391 151.836 66.8203C153.055 67.0859 154.234 67.4062 155.375 67.7812C156.516 68.1562 157.648 68.5781 158.773 69.0469V76.875C157.883 76.3906 156.945 75.9141 155.961 75.4453C154.977 74.9609 153.891 74.5312 152.703 74.1562C151.516 73.7656 150.211 73.4531 148.789 73.2188C147.367 72.9688 145.766 72.8438 143.984 72.8438C141.25 72.8438 138.977 73.125 137.164 73.6875C135.367 74.25 133.93 75 132.852 75.9375C131.773 76.875 131.016 77.9531 130.578 79.1719C130.141 80.375 129.922 81.625 129.922 82.9219C129.922 83.7812 130.016 84.6328 130.203 85.4766C130.391 86.3047 130.703 87.0938 131.141 87.8438C131.578 88.5781 132.148 89.2578 132.852 89.8828C133.555 90.5078 134.43 91.0469 135.477 91.5C136.523 91.9531 137.742 92.3125 139.133 92.5781C140.539 92.8281 142.156 92.9531 143.984 92.9531C145.766 92.9531 147.367 92.8438 148.789 92.625C150.211 92.3906 151.516 92.0859 152.703 91.7109C153.891 91.3359 154.977 90.9141 155.961 90.4453C156.945 89.9609 157.883 89.4688 158.773 88.9688V96.7969ZM208.555 82.9219C208.555 85.6875 208.047 88.1328 207.031 90.2578C206.016 92.3672 204.562 94.1328 202.672 95.5547C200.781 96.9766 198.484 98.0547 195.781 98.7891C193.094 99.5078 190.07 99.8672 186.711 99.8672C183.352 99.8672 180.312 99.5078 177.594 98.7891C174.891 98.0547 172.586 96.9766 170.68 95.5547C168.773 94.1328 167.305 92.3672 166.273 90.2578C165.242 88.1328 164.727 85.6875 164.727 82.9219C164.727 80.1562 165.242 77.7188 166.273 75.6094C167.305 73.4844 168.773 71.7109 170.68 70.2891C172.586 68.8672 174.891 67.7969 177.594 67.0781C180.312 66.3438 183.352 65.9766 186.711 65.9766C190.07 65.9766 193.094 66.3438 195.781 67.0781C198.484 67.7969 200.781 68.8672 202.672 70.2891C204.562 71.7109 206.016 73.4844 207.031 75.6094C208.047 77.7188 208.555 80.1562 208.555 82.9219ZM199.766 82.9219C199.766 81.7188 199.57 80.5234 199.18 79.3359C198.805 78.1328 198.125 77.0547 197.141 76.1016C196.172 75.1484 194.844 74.375 193.156 73.7812C191.469 73.1875 189.32 72.8906 186.711 72.8906C184.961 72.8906 183.422 73.0312 182.094 73.3125C180.766 73.5781 179.617 73.9531 178.648 74.4375C177.68 74.9219 176.867 75.4922 176.211 76.1484C175.555 76.7891 175.031 77.4844 174.641 78.2344C174.25 78.9688 173.969 79.7422 173.797 80.5547C173.641 81.3516 173.562 82.1406 173.562 82.9219C173.562 83.7188 173.641 84.5234 173.797 85.3359C173.969 86.1484 174.25 86.9297 174.641 87.6797C175.031 88.4141 175.555 89.1016 176.211 89.7422C176.867 90.3828 177.68 90.9453 178.648 91.4297C179.617 91.8984 180.766 92.2734 182.094 92.5547C183.422 92.8203 184.961 92.9531 186.711 92.9531C189.32 92.9531 191.469 92.6562 193.156 92.0625C194.844 91.4688 196.172 90.6953 197.141 89.7422C198.125 88.7891 198.805 87.7188 199.18 86.5312C199.57 85.3281 199.766 84.125 199.766 82.9219ZM225.172 66.7969V70.3359C225.938 69.8516 226.766 69.3516 227.656 68.8359C228.562 68.3203 229.539 67.8516 230.586 67.4297C231.648 67.0078 232.781 66.6641 233.984 66.3984C235.203 66.1172 236.516 65.9766 237.922 65.9766C239.297 65.9766 240.5 66.125 241.531 66.4219C242.562 66.7031 243.453 67.0781 244.203 67.5469C244.969 68 245.617 68.5156 246.148 69.0938C246.68 69.6562 247.141 70.2188 247.531 70.7812C248.641 70.0625 249.734 69.4062 250.812 68.8125C251.891 68.2188 252.977 67.7109 254.07 67.2891C255.164 66.8672 256.281 66.5469 257.422 66.3281C258.562 66.0938 259.75 65.9766 260.984 65.9766C262.953 65.9766 264.711 66.25 266.258 66.7969C267.82 67.3438 269.141 68.0938 270.219 69.0469C271.297 70 272.117 71.125 272.68 72.4219C273.258 73.7031 273.547 75.0781 273.547 76.5469V99H264.852V77.7891C264.852 76.9297 264.719 76.1875 264.453 75.5625C264.188 74.9375 263.828 74.4297 263.375 74.0391C262.938 73.6484 262.414 73.3594 261.805 73.1719C261.211 72.9844 260.578 72.8906 259.906 72.8906C256.781 72.8906 253.219 74.2969 249.219 77.1094C249.266 77.375 249.297 77.6875 249.312 78.0469C249.344 78.4062 249.359 78.7656 249.359 79.125V99H240.664V77.6016C240.664 76.7422 240.531 76.0156 240.266 75.4219C240 74.8125 239.633 74.3203 239.164 73.9453C238.711 73.5703 238.18 73.3047 237.57 73.1484C236.977 72.9766 236.344 72.8906 235.672 72.8906C234.859 72.8906 234 73.0078 233.094 73.2422C232.203 73.4766 231.297 73.8047 230.375 74.2266C229.469 74.6484 228.57 75.1484 227.68 75.7266C226.805 76.3047 225.969 76.9297 225.172 77.6016V99H216.477V66.7969H225.172ZM292.203 66.7969V70.3359C292.969 69.8516 293.797 69.3516 294.688 68.8359C295.594 68.3203 296.57 67.8516 297.617 67.4297C298.68 67.0078 299.812 66.6641 301.016 66.3984C302.234 66.1172 303.547 65.9766 304.953 65.9766C306.328 65.9766 307.531 66.125 308.562 66.4219C309.594 66.7031 310.484 67.0781 311.234 67.5469C312 68 312.648 68.5156 313.18 69.0938C313.711 69.6562 314.172 70.2188 314.562 70.7812C315.672 70.0625 316.766 69.4062 317.844 68.8125C318.922 68.2188 320.008 67.7109 321.102 67.2891C322.195 66.8672 323.312 66.5469 324.453 66.3281C325.594 66.0938 326.781 65.9766 328.016 65.9766C329.984 65.9766 331.742 66.25 333.289 66.7969C334.852 67.3438 336.172 68.0938 337.25 69.0469C338.328 70 339.148 71.125 339.711 72.4219C340.289 73.7031 340.578 75.0781 340.578 76.5469V99H331.883V77.7891C331.883 76.9297 331.75 76.1875 331.484 75.5625C331.219 74.9375 330.859 74.4297 330.406 74.0391C329.969 73.6484 329.445 73.3594 328.836 73.1719C328.242 72.9844 327.609 72.8906 326.938 72.8906C323.812 72.8906 320.25 74.2969 316.25 77.1094C316.297 77.375 316.328 77.6875 316.344 78.0469C316.375 78.4062 316.391 78.7656 316.391 79.125V99H307.695V77.6016C307.695 76.7422 307.562 76.0156 307.297 75.4219C307.031 74.8125 306.664 74.3203 306.195 73.9453C305.742 73.5703 305.211 73.3047 304.602 73.1484C304.008 72.9766 303.375 72.8906 302.703 72.8906C301.891 72.8906 301.031 73.0078 300.125 73.2422C299.234 73.4766 298.328 73.8047 297.406 74.2266C296.5 74.6484 295.602 75.1484 294.711 75.7266C293.836 76.3047 293 76.9297 292.203 77.6016V99H283.508V66.7969H292.203ZM359.094 66.7969V84.9375C359.094 86.1406 359.195 87.2344 359.398 88.2188C359.602 89.1875 359.977 90.0234 360.523 90.7266C361.07 91.4141 361.836 91.9531 362.82 92.3438C363.805 92.7188 365.086 92.9062 366.664 92.9062C367.852 92.9062 369.094 92.7422 370.391 92.4141C371.703 92.0859 373 91.6484 374.281 91.1016C375.562 90.5547 376.781 89.9297 377.938 89.2266C379.109 88.5078 380.156 87.7656 381.078 87V66.7969H389.75V99H381.078V94.5938C379.984 95.2188 378.82 95.8516 377.586 96.4922C376.352 97.1172 375.039 97.6875 373.648 98.2031C372.258 98.7031 370.781 99.1094 369.219 99.4219C367.656 99.75 366.008 99.9141 364.273 99.9141C362.102 99.9141 360.156 99.6484 358.438 99.1172C356.719 98.6016 355.266 97.8672 354.078 96.9141C352.891 95.9453 351.977 94.7812 351.336 93.4219C350.711 92.0469 350.398 90.5156 350.398 88.8281V66.7969H359.094ZM430.531 99V80.9531C430.531 79.75 430.43 78.6641 430.227 77.6953C430.023 76.7109 429.641 75.875 429.078 75.1875C428.531 74.4844 427.758 73.9453 426.758 73.5703C425.773 73.1797 424.5 72.9844 422.938 72.9844C421.75 72.9844 420.5 73.1484 419.188 73.4766C417.891 73.7891 416.602 74.2109 415.32 74.7422C414.039 75.2734 412.812 75.8906 411.641 76.5938C410.484 77.2969 409.453 78.0312 408.547 78.7969V99H399.852V66.7969H408.547V71.2031C409.641 70.5781 410.805 69.9609 412.039 69.3516C413.273 68.7266 414.586 68.1641 415.977 67.6641C417.367 67.1641 418.844 66.7578 420.406 66.4453C421.969 66.1328 423.617 65.9766 425.352 65.9766C427.523 65.9766 429.461 66.2422 431.164 66.7734C432.883 67.2891 434.336 68.0312 435.523 69C436.711 69.9531 437.617 71.1172 438.242 72.4922C438.883 73.8516 439.203 75.375 439.203 77.0625V99H430.531ZM449.164 99V66.7969H457.859V99H449.164ZM509.633 82.9219C509.633 84.6719 509.422 86.2812 509 87.75C508.594 89.2188 508 90.5703 507.219 91.8047C508.172 92.0391 509.047 92.2422 509.844 92.4141C510.641 92.5859 511.336 92.7344 511.93 92.8594L513.805 93.2344L511.461 100.547L500.891 97.2656C497.375 99 493.008 99.8672 487.789 99.8672C484.43 99.8672 481.391 99.5078 478.672 98.7891C475.969 98.0547 473.664 96.9766 471.758 95.5547C469.852 94.1328 468.383 92.3672 467.352 90.2578C466.32 88.1328 465.805 85.6875 465.805 82.9219C465.805 80.1562 466.32 77.7188 467.352 75.6094C468.383 73.4844 469.852 71.7109 471.758 70.2891C473.664 68.8672 475.969 67.7969 478.672 67.0781C481.391 66.3438 484.43 65.9766 487.789 65.9766C491.148 65.9766 494.172 66.3438 496.859 67.0781C499.562 67.7969 501.859 68.8672 503.75 70.2891C505.641 71.7109 507.094 73.4844 508.109 75.6094C509.125 77.7188 509.633 80.1562 509.633 82.9219ZM500.844 82.9219C500.844 81.7188 500.648 80.5234 500.258 79.3359C499.883 78.1328 499.203 77.0547 498.219 76.1016C497.25 75.1484 495.922 74.375 494.234 73.7812C492.547 73.1875 490.398 72.8906 487.789 72.8906C486.039 72.8906 484.5 73.0312 483.172 73.3125C481.844 73.5781 480.695 73.9531 479.727 74.4375C478.758 74.9219 477.945 75.4922 477.289 76.1484C476.633 76.7891 476.109 77.4844 475.719 78.2344C475.328 78.9688 475.047 79.7422 474.875 80.5547C474.719 81.3516 474.641 82.1406 474.641 82.9219C474.641 83.7188 474.719 84.5234 474.875 85.3359C475.047 86.1484 475.328 86.9297 475.719 87.6797C476.109 88.4141 476.633 89.1016 477.289 89.7422C477.945 90.3828 478.758 90.9453 479.727 91.4297C480.695 91.8984 481.844 92.2734 483.172 92.5547C484.5 92.8203 486.039 92.9531 487.789 92.9531C490.398 92.9531 492.547 92.6562 494.234 92.0625C495.922 91.4688 497.25 90.6953 498.219 89.7422C499.203 88.7891 499.883 87.7188 500.258 86.5312C500.648 85.3281 500.844 84.125 500.844 82.9219ZM526.578 66.7969V84.9375C526.578 86.1406 526.68 87.2344 526.883 88.2188C527.086 89.1875 527.461 90.0234 528.008 90.7266C528.555 91.4141 529.32 91.9531 530.305 92.3438C531.289 92.7188 532.57 92.9062 534.148 92.9062C535.336 92.9062 536.578 92.7422 537.875 92.4141C539.188 92.0859 540.484 91.6484 541.766 91.1016C543.047 90.5547 544.266 89.9297 545.422 89.2266C546.594 88.5078 547.641 87.7656 548.562 87V66.7969H557.234V99H548.562V94.5938C547.469 95.2188 546.305 95.8516 545.07 96.4922C543.836 97.1172 542.523 97.6875 541.133 98.2031C539.742 98.7031 538.266 99.1094 536.703 99.4219C535.141 99.75 533.492 99.9141 531.758 99.9141C529.586 99.9141 527.641 99.6484 525.922 99.1172C524.203 98.6016 522.75 97.8672 521.562 96.9141C520.375 95.9453 519.461 94.7812 518.82 93.4219C518.195 92.0469 517.883 90.5156 517.883 88.8281V66.7969H526.578ZM603.242 97.4062C600.602 98.2812 597.961 98.9062 595.32 99.2812C592.695 99.6719 590.008 99.8672 587.258 99.8672C583.742 99.8672 580.609 99.4922 577.859 98.7422C575.125 97.9766 572.82 96.875 570.945 95.4375C569.07 94 567.641 92.2422 566.656 90.1641C565.672 88.0859 565.18 85.7344 565.18 83.1094C565.18 80.6719 565.672 78.4141 566.656 76.3359C567.656 74.2422 569.062 72.4297 570.875 70.8984C572.703 69.3516 574.906 68.1484 577.484 67.2891C580.062 66.4141 582.938 65.9766 586.109 65.9766C589.031 65.9766 591.703 66.375 594.125 67.1719C596.562 67.9531 598.648 69.1172 600.383 70.6641C602.133 72.2109 603.484 74.1172 604.438 76.3828C605.406 78.6484 605.891 81.2578 605.891 84.2109V86.3672H574.156C574.438 87.3828 574.898 88.3125 575.539 89.1562C576.195 90 577.078 90.7188 578.188 91.3125C579.297 91.9062 580.656 92.3672 582.266 92.6953C583.891 93.0234 585.828 93.1875 588.078 93.1875C589.672 93.1875 591.234 93.0938 592.766 92.9062C594.297 92.7031 595.727 92.4453 597.055 92.1328C598.383 91.8047 599.578 91.4453 600.641 91.0547C601.719 90.6641 602.586 90.2734 603.242 89.8828V97.4062ZM597.242 79.9922C597.164 79.1953 596.922 78.375 596.516 77.5312C596.125 76.6719 595.5 75.8984 594.641 75.2109C593.781 74.5234 592.656 73.9609 591.266 73.5234C589.875 73.0703 588.141 72.8438 586.062 72.8438C584.109 72.8438 582.422 73.0859 581 73.5703C579.578 74.0547 578.383 74.6562 577.414 75.375C576.461 76.0938 575.719 76.8672 575.188 77.6953C574.656 78.5234 574.312 79.2891 574.156 79.9922H597.242ZM595.273 59.4609L583.039 63.8203L580.93 59.8359L592.203 53.2734L595.273 59.4609Z" fill="url(#paint0_linear_533_45)"/>
<defs>
<filter id="filter0_d_533_45" x="0.728516" y="5.10449" width="407.431" height="37.6543" filterUnits="userSpaceOnUse" color-interpolation-filters="sRGB">
<feFlood flood-opacity="0" result="BackgroundImageFix"/>
<feColorMatrix in="SourceAlpha" type="matrix" values="0 0 0 0 0 0 0 0 0 0 0 0 0 0 0 0 0 0 127 0" result="hardAlpha"/>
<feOffset dy="4"/>
<feGaussianBlur stdDeviation="2"/>
<feComposite in2="hardAlpha" operator="out"/>
<feColorMatrix type="matrix" values="0 0 0 0 0 0 0 0 0 0 0 0 0 0 0 0 0 0 0.25 0"/>
<feBlend mode="normal" in2="BackgroundImageFix" result="effect1_dropShadow_533_45"/>
<feBlend mode="normal" in="SourceGraphic" in2="effect1_dropShadow_533_45" result="shape"/>
</filter>
<linearGradient id="paint0_linear_533_45" x1="1" y1="93.5" x2="726" y2="93.5" gradientUnits="userSpaceOnUse">
<stop stop-color="#001CB1"/>
<stop offset="0.44" stop-color="#ADB1B3"/>
<stop offset="1" stop-color="#FFF84B"/>
</linearGradient>
</defs>
</svg>
