<svg width="167" height="52" viewBox="0 0 167 52" fill="none" xmlns="http://www.w3.org/2000/svg">
<path d="M71.5898 34H67.9668V20.582H77.0488C78.0254 20.582 78.8522 20.6829 79.5293 20.8848C80.2129 21.0866 80.7663 21.373 81.1895 21.7441C81.6191 22.1152 81.9284 22.5645 82.1172 23.0918C82.3125 23.6126 82.4102 24.1953 82.4102 24.8398C82.4102 25.4062 82.3288 25.901 82.166 26.3242C82.0098 26.7474 81.7949 27.112 81.5215 27.418C81.2546 27.7174 80.9421 27.9714 80.584 28.1797C80.2259 28.388 79.8483 28.5605 79.4512 28.6973L83.8457 34H79.6074L75.5449 29.0586H71.5898V34ZM78.748 24.8203C78.748 24.5599 78.7122 24.3385 78.6406 24.1562C78.5755 23.974 78.4583 23.8275 78.2891 23.7168C78.1198 23.5996 77.8919 23.515 77.6055 23.4629C77.3255 23.4108 76.974 23.3848 76.5508 23.3848H71.5898V26.2559H76.5508C76.974 26.2559 77.3255 26.2298 77.6055 26.1777C77.8919 26.1257 78.1198 26.0443 78.2891 25.9336C78.4583 25.8164 78.5755 25.6667 78.6406 25.4844C78.7122 25.3021 78.748 25.0807 78.748 24.8203ZM97.8203 34V32.6816C97.3581 32.9355 96.86 33.1602 96.3262 33.3555C95.7988 33.5508 95.2487 33.7168 94.6758 33.8535C94.1029 33.9902 93.5104 34.0911 92.8984 34.1562C92.293 34.2279 91.681 34.2637 91.0625 34.2637C90.3398 34.2637 89.64 34.1953 88.9629 34.0586C88.2923 33.9219 87.6966 33.7005 87.1758 33.3945C86.6549 33.0885 86.235 32.6882 85.916 32.1934C85.6035 31.6986 85.4473 31.0931 85.4473 30.377C85.4473 29.472 85.6947 28.7201 86.1895 28.1211C86.6842 27.5156 87.4395 27.0208 88.4551 26.6367C89.4707 26.2526 90.7533 25.9564 92.3027 25.748C93.8587 25.5397 95.6979 25.377 97.8203 25.2598V24.9766C97.8203 24.7552 97.7617 24.5371 97.6445 24.3223C97.5273 24.1009 97.3125 23.9089 97 23.7461C96.694 23.5768 96.2708 23.4401 95.7305 23.3359C95.1966 23.2318 94.513 23.1797 93.6797 23.1797C93.0221 23.1797 92.3711 23.2155 91.7266 23.2871C91.0885 23.3522 90.4701 23.4434 89.8711 23.5605C89.2786 23.6777 88.7155 23.8145 88.1816 23.9707C87.6478 24.127 87.1628 24.2897 86.7266 24.459V21.2363C87.1823 21.1191 87.6934 21.0052 88.2598 20.8945C88.8262 20.7839 89.4154 20.6895 90.0273 20.6113C90.6393 20.5267 91.2578 20.4616 91.8828 20.416C92.5078 20.3639 93.1068 20.3379 93.6797 20.3379C94.806 20.3379 95.8444 20.4323 96.7949 20.6211C97.7454 20.8034 98.5625 21.0898 99.2461 21.4805C99.9362 21.8711 100.473 22.3659 100.857 22.9648C101.248 23.5638 101.443 24.2767 101.443 25.1035V34H97.8203ZM97.8203 27.877C96.4271 27.929 95.2422 28.0039 94.2656 28.1016C93.2956 28.1992 92.4883 28.3132 91.8438 28.4434C91.1992 28.5736 90.6914 28.7135 90.3203 28.8633C89.9557 29.013 89.6823 29.166 89.5 29.3223C89.3177 29.4785 89.2038 29.6348 89.1582 29.791C89.1191 29.9473 89.0996 30.0905 89.0996 30.2207C89.0996 30.377 89.1419 30.5299 89.2266 30.6797C89.3112 30.8229 89.4577 30.9499 89.666 31.0605C89.8809 31.1712 90.1641 31.2591 90.5156 31.3242C90.8672 31.3893 91.3099 31.4219 91.8438 31.4219C92.4362 31.4219 93.0156 31.3763 93.582 31.2852C94.1484 31.194 94.6855 31.0703 95.1934 30.9141C95.7012 30.7513 96.1764 30.5625 96.6191 30.3477C97.0684 30.1263 97.4688 29.8919 97.8203 29.6445V27.877ZM114.588 34H110.369L103.582 20.582H107.625L112.508 30.6797L117.381 20.582H121.424L114.588 34ZM138.396 33.3359C137.296 33.7005 136.196 33.9609 135.096 34.1172C134.002 34.2799 132.882 34.3613 131.736 34.3613C130.271 34.3613 128.966 34.2051 127.82 33.8926C126.681 33.5736 125.721 33.1146 124.939 32.5156C124.158 31.9167 123.562 31.1842 123.152 30.3184C122.742 29.4525 122.537 28.4727 122.537 27.3789C122.537 26.3633 122.742 25.4225 123.152 24.5566C123.569 23.6842 124.155 22.929 124.91 22.291C125.672 21.6465 126.59 21.1452 127.664 20.7871C128.738 20.4225 129.936 20.2402 131.258 20.2402C132.475 20.2402 133.589 20.4062 134.598 20.7383C135.613 21.0638 136.482 21.5488 137.205 22.1934C137.934 22.8379 138.497 23.6322 138.895 24.5762C139.298 25.5202 139.5 26.6074 139.5 27.8379V28.7363H126.277C126.395 29.1595 126.587 29.5469 126.854 29.8984C127.127 30.25 127.495 30.5495 127.957 30.7969C128.419 31.0443 128.986 31.2363 129.656 31.373C130.333 31.5098 131.141 31.5781 132.078 31.5781C132.742 31.5781 133.393 31.5391 134.031 31.4609C134.669 31.3763 135.265 31.2689 135.818 31.1387C136.372 31.002 136.87 30.8522 137.312 30.6895C137.762 30.5267 138.123 30.3639 138.396 30.2012V33.3359ZM135.896 26.0801C135.864 25.748 135.763 25.4062 135.594 25.0547C135.431 24.6966 135.171 24.3743 134.812 24.0879C134.454 23.8014 133.986 23.5671 133.406 23.3848C132.827 23.196 132.104 23.1016 131.238 23.1016C130.424 23.1016 129.721 23.2025 129.129 23.4043C128.536 23.6061 128.038 23.8568 127.635 24.1562C127.238 24.4557 126.928 24.778 126.707 25.123C126.486 25.4681 126.342 25.7871 126.277 26.0801H135.896ZM142.01 34V31.1973L150.828 23.5215H142.273V20.582H156.033V23.043L146.814 31.0605H156.229V34H142.01ZM158.426 34V30.4844H162.127V34H158.426Z" fill="white"/>
<g clip-path="url(#clip0_598_57)">
<mask id="mask0_598_57" style="mask-type:luminance" maskUnits="userSpaceOnUse" x="12" y="20" width="32" height="18">
<path d="M12.1238 20.1138H43.6103V37.0798H12.1238V20.1138Z" fill="white"/>
</mask>
<g mask="url(#mask0_598_57)">
<path d="M22.2318 24.753C22.2225 24.8601 22.2183 24.9683 22.2183 25.0774V32.2457C22.2183 33.0933 22.9496 33.782 23.8504 33.782C24.7503 33.782 25.4815 33.0933 25.4815 32.2457V28.0156C25.4815 26.2835 24.0428 24.8611 22.2318 24.753ZM33.5416 24.753C31.7306 24.8611 30.2919 26.2835 30.2919 28.0156V32.2457C30.2919 33.0933 31.0242 33.782 31.924 33.782C32.8238 33.782 33.5561 33.0933 33.5561 32.2457V25.0774C33.5561 24.9683 33.5509 24.8601 33.5416 24.753ZM43.1335 37.0798C42.8481 37.0798 42.6164 36.8615 42.6164 36.5927V28.0156C42.6164 26.2133 41.0598 24.7471 39.1454 24.7471H34.578C34.5863 24.8562 34.5894 24.9663 34.5894 25.0774V32.2457C34.5894 33.6301 33.3937 34.7563 31.924 34.7563C30.4543 34.7563 29.2576 33.6301 29.2576 32.2457V28.0156C29.2576 26.8826 29.7262 25.8168 30.5774 25.016C31.3252 24.3107 32.2902 23.8849 33.3306 23.7924C32.7607 22.2229 31.1804 21.0918 29.3249 21.0918H26.4496C24.593 21.0918 23.0127 22.2229 22.4438 23.7924C23.4833 23.8849 24.4482 24.3107 25.196 25.016C26.0472 25.8168 26.5158 26.8826 26.5158 28.0156V32.2457C26.5158 33.6301 25.3201 34.7563 23.8504 34.7563C22.3797 34.7563 21.1841 33.6301 21.1841 32.2457V25.0774C21.1841 24.9663 21.1882 24.8562 21.1954 24.7471H16.6281C14.7146 24.7471 13.157 26.2133 13.157 28.0156V36.5927C13.157 36.8615 12.9264 37.0798 12.6409 37.0798C12.3555 37.0798 12.1238 36.8615 12.1238 36.5927V28.0156C12.1238 26.8826 12.5923 25.8168 13.4425 25.016C14.2937 24.2142 15.4252 23.7729 16.6281 23.7729H21.3671C21.604 22.9477 22.0673 22.1917 22.7262 21.5702C23.7211 20.634 25.043 20.1176 26.4496 20.1176H29.3249C30.7315 20.1176 32.0533 20.634 33.0472 21.5702C33.7071 22.1917 34.1694 22.9477 34.4063 23.7729H39.1454C40.3482 23.7729 41.4797 24.2142 42.3309 25.016C43.1821 25.8168 43.6496 26.8826 43.6496 28.0156V36.5927C43.6496 36.8615 43.419 37.0798 43.1335 37.0798Z" fill="white"/>
</g>
<mask id="mask1_598_57" style="mask-type:luminance" maskUnits="userSpaceOnUse" x="23" y="11" width="10" height="8">
<path d="M23.8298 11.0019H32.0379V18.7051H23.8298V11.0019Z" fill="white"/>
</mask>
<g mask="url(#mask1_598_57)">
<path d="M27.8873 11.9751C26.2242 11.9751 24.8713 13.2494 24.8713 14.816C24.8713 16.3825 26.2242 17.6568 27.8873 17.6568C29.5494 17.6568 30.9022 16.3825 30.9022 14.816C30.9022 13.2494 29.5494 11.9751 27.8873 11.9751ZM27.8873 18.63C26.8054 18.63 25.7887 18.2335 25.0234 17.5136C24.259 16.7927 23.837 15.835 23.837 14.816C23.837 13.7969 24.259 12.8393 25.0234 12.1193C25.7887 11.3984 26.8054 11.0019 27.8873 11.0019C28.9681 11.0019 29.9858 11.3984 30.7502 12.1193C31.5155 12.8393 31.9365 13.7969 31.9365 14.816C31.9365 15.835 31.5155 16.7927 30.7502 17.5136C29.9858 18.2335 28.9681 18.63 27.8873 18.63Z" fill="white"/>
</g>
<path d="M36.8214 15.4161C35.1593 15.4161 33.8065 16.6903 33.8065 18.2569C33.8065 19.8234 35.1593 21.0977 36.8214 21.0977C38.4845 21.0977 39.8374 19.8234 39.8374 18.2569C39.8374 16.6903 38.4845 15.4161 36.8214 15.4161ZM36.8214 22.071C35.7396 22.071 34.7229 21.6744 33.9585 20.9545C33.1932 20.2336 32.7722 19.2759 32.7722 18.2569C32.7722 17.2378 33.1932 16.2802 33.9585 15.5602C34.7229 14.8393 35.7396 14.4428 36.8214 14.4428C37.9033 14.4428 38.92 14.8393 39.6853 15.5602C40.4497 16.2802 40.8717 17.2378 40.8717 18.2569C40.8717 19.2759 40.4497 20.2336 39.6853 20.9545C38.92 21.6744 37.9033 22.071 36.8214 22.071Z" fill="white"/>
<path d="M18.9522 15.4161C17.289 15.4161 15.9362 16.6903 15.9362 18.2569C15.9362 19.8234 17.289 21.0977 18.9522 21.0977C20.6153 21.0977 21.9681 19.8234 21.9681 18.2569C21.9681 16.6903 20.6153 15.4161 18.9522 15.4161ZM18.9522 22.071C17.8703 22.071 16.8536 21.6744 16.0893 20.9545C15.3239 20.2336 14.903 19.2759 14.903 18.2569C14.903 17.2378 15.3239 16.2802 16.0893 15.5602C16.8536 14.8393 17.8703 14.4428 18.9522 14.4428C20.034 14.4428 21.0507 14.8393 21.8161 15.5602C22.5804 16.2802 23.0014 17.2378 23.0014 18.2569C23.0014 19.2759 22.5804 20.2336 21.8161 20.9545C21.0507 21.6744 20.034 22.071 18.9522 22.071Z" fill="white"/>
<mask id="mask2_598_57" style="mask-type:luminance" maskUnits="userSpaceOnUse" x="0" y="0" width="56" height="52">
<path d="M0.000976562 0H55.8665V51.8753H0.000976562V0Z" fill="white"/>
</mask>
<g mask="url(#mask2_598_57)">
<mask id="mask3_598_57" style="mask-type:luminance" maskUnits="userSpaceOnUse" x="-6" y="-6" width="68" height="64">
<path d="M61.6 -5.20001H-5.59998V57.2H61.6V-5.20001Z" fill="black" fill-opacity="0.8"/>
</mask>
<g mask="url(#mask3_598_57)">
<mask id="mask4_598_57" style="mask-type:luminance" maskUnits="userSpaceOnUse" x="0" y="0" width="56" height="52">
<path d="M55.8676 0H0V51.8753H55.8676V0Z" fill="white"/>
</mask>
<g mask="url(#mask4_598_57)">
<mask id="mask5_598_57" style="mask-type:luminance" maskUnits="userSpaceOnUse" x="1" y="2" width="55" height="50">
<path d="M1.85339 2.74341H55.8665V51.1271H1.85339V2.74341Z" fill="white"/>
</mask>
<g mask="url(#mask5_598_57)">
<path d="M51.5402 20.4518C50.5183 17.5906 48.9297 14.9222 46.8642 12.6376C44.7988 10.3326 42.2565 8.41145 39.3967 7.02319C36.537 5.61447 33.3586 4.76105 30.0903 4.52626C26.822 4.2905 23.4854 4.65388 20.3526 5.7002C20.3526 5.72163 20.3526 5.74306 20.3071 5.78495C20.2171 5.87069 20.035 5.97785 19.8085 6.06261C19.581 6.16977 19.3317 6.25453 19.0814 6.34026C17.6976 6.80983 16.3582 7.42944 15.0643 8.1338C12.7496 9.56396 10.7514 11.3994 9.11719 13.4706C9.43472 13.0439 9.79878 12.6591 10.1391 12.2538C10.5021 11.8699 10.8651 11.4851 11.2509 11.1227C11.9997 10.3755 12.8396 9.71301 13.7022 9.11581C13.9524 8.92389 14.2017 8.77386 14.3837 8.68911C14.5647 8.60337 14.6785 8.58194 14.7013 8.64624C14.7013 8.70956 14.6103 8.81673 14.4282 8.98722C14.27 9.15868 14.0197 9.3506 13.7704 9.54252C11.5012 11.2289 9.48023 13.4706 8.00534 15.9042C6.50667 18.3378 5.5541 20.9633 4.94078 23.355C4.50948 26.4716 4.827 29.6524 5.80336 32.577C6.77972 35.5016 8.43664 38.1914 10.5476 40.3902C12.6586 42.5891 15.2463 44.3397 18.0151 45.4922C20.7839 46.6457 23.7574 47.2215 26.6399 47.2429C26.8675 47.2429 27.1395 47.2643 27.2533 47.3072C27.4115 47.3501 27.367 47.3929 27.1623 47.3929C24.1432 47.5206 20.9431 47.0296 17.8786 45.8128C16.3582 45.1941 14.8595 44.4255 13.4756 43.4649C12.0907 42.5043 10.7741 41.3723 9.61675 40.0912C8.45939 38.811 7.43752 37.4013 6.62044 35.8436C5.80336 34.3062 5.14556 32.6627 4.71427 30.9335C4.30573 29.2042 4.10094 27.4321 4.12369 25.6172V25.2762L4.14645 24.9342L4.19196 24.2513C4.23747 23.8032 4.28297 23.355 4.35124 22.9069C4.50948 22.0096 4.66876 21.1133 4.94078 20.2375L5.12281 19.5975L5.34932 18.9574C5.48584 18.5297 5.66684 18.1244 5.84887 17.7192C4.69151 20.0242 3.9427 22.5864 3.6924 25.2976C3.76066 25.5753 3.78342 26.0234 3.78342 26.5573C3.82893 27.8374 3.98717 29.0971 4.23747 30.3353C4.23747 30.271 4.26022 30.2506 4.28297 30.2291C4.37399 30.2291 4.53224 30.6773 4.64601 31.2111C5.34932 34.3062 6.75697 37.2308 8.73141 39.793C8.77692 39.8564 8.82242 39.9207 8.86793 39.9635C11.4102 43.0586 14.7923 45.5351 18.5829 47.0296C22.3725 48.5669 26.5489 49.1222 30.6126 48.6945C30.8619 48.6731 31.1122 48.6312 31.3614 48.6097C31.6107 48.5669 31.861 48.5454 32.1103 48.5026L32.8591 48.3535L33.2449 48.2892L33.6089 48.2035L34.3577 48.033L35.0838 47.8197C35.5834 47.6911 36.0374 47.4991 36.537 47.3501C37.4895 46.9867 38.4204 46.6243 39.3057 46.1547C39.7598 45.9414 40.1911 45.6851 40.6224 45.4503C40.8489 45.3218 41.0537 45.1941 41.2574 45.0655C41.4622 44.9379 41.6887 44.8093 41.8935 44.6603C45.2073 42.44 47.8623 39.4082 49.5875 35.9712C49.6558 35.7578 49.7923 35.4802 49.9061 35.3526C50.0188 35.2025 50.0643 35.2454 49.996 35.4587C50.0415 35.4587 50.1098 35.4373 50.0871 35.5016C49.0435 38.17 47.4765 40.625 45.4111 42.781C43.3229 44.9165 40.7134 46.7305 37.5806 47.9687C35.4241 48.8231 33.1549 49.3774 30.8391 49.6337C33.2449 49.506 35.5379 49.1007 37.5806 48.5669C40.4403 47.4777 43.0964 45.8771 45.3428 43.913C47.5903 41.949 49.4748 39.6645 50.9269 37.2094L50.7676 37.3799C50.8814 37.1665 51.0179 36.9532 51.1317 36.8041C51.2444 36.6541 51.3127 36.5479 51.3582 36.5694C51.4037 36.5694 51.4037 36.6541 51.3582 36.8256C51.3127 36.9746 51.2217 37.188 51.0862 37.4228C50.4956 38.6181 49.7923 39.793 48.9752 40.9027C48.1581 42.0133 47.2273 43.0372 46.2282 44.0192C45.2073 44.9798 44.1172 45.8771 42.9371 46.6671C41.757 47.4563 40.4858 48.1606 39.1692 48.7588C33.8809 51.171 27.6391 51.7477 21.8285 50.4023C18.9232 49.7194 16.1306 48.5669 13.6339 46.9867C11.1371 45.4075 8.91344 43.422 7.09725 41.1375C5.28105 38.8529 3.89719 36.2488 3.01185 33.5161C2.10375 30.7835 1.76347 27.8803 1.87724 24.9985C2.08099 20.4304 3.71515 15.947 6.4622 12.2109C9.18546 8.45432 13.0444 5.46541 17.47 3.60757C18.1289 3.30946 18.7639 3.15943 19.218 3.05324C19.672 2.96751 19.9895 2.96751 20.0123 3.0737C20.035 3.26659 18.9915 3.7576 17.7203 4.31193C13.4984 6.10547 9.86601 9.00865 7.27928 12.5743C4.66876 16.139 3.10286 20.3447 2.82981 24.678C2.71708 26.5787 2.7843 28.4999 3.14734 30.3567C3.48865 32.2146 4.07819 34.05 4.84976 35.7793C3.66965 33.0466 3.10286 30.122 3.10286 27.2188C3.0346 26.1082 3.08011 24.9985 3.19284 23.8889C3.30661 22.7783 3.53416 21.6686 3.80617 20.558C4.1237 19.4698 4.48673 18.3807 4.96353 17.3343C5.44033 16.289 5.9854 15.2641 6.62044 14.2821C8.14187 11.8904 10.0708 9.84161 12.2728 8.17667C14.4737 6.51075 16.9477 5.18776 19.6038 4.2905C22.237 3.39422 25.0285 2.88178 27.8883 2.79702C29.3187 2.75415 30.7481 2.81748 32.1785 2.98894C33.6089 3.15943 35.0611 3.45852 36.4687 3.84236C39.2375 4.61102 41.6887 5.74306 43.8907 7.06605C44.9798 7.74898 46.0017 8.47478 46.978 9.26487C47.9306 10.055 48.8387 10.9084 49.6558 11.8056C50.4956 12.7019 51.2444 13.6625 51.926 14.6659C52.6066 15.6694 53.2199 16.7586 53.7639 17.8682C54.2862 18.9993 54.7403 20.1742 55.0806 21.4124C55.4208 22.6507 55.6711 23.9308 55.8066 25.2762C55.8521 25.7458 55.8294 26.2796 55.7621 26.4501C55.7394 26.5359 55.6939 26.5359 55.6484 26.4501C55.6029 26.3644 55.5801 26.1939 55.5574 25.9591C55.1033 20.8143 52.9923 16.1604 49.7468 12.4243C48.9524 11.4851 48.0444 10.6103 47.0907 9.79874C46.6139 9.37203 46.1154 9.00865 45.6159 8.60337C45.3656 8.41145 45.0936 8.23999 44.8443 8.04807C44.594 7.85615 44.2992 7.70709 44.05 7.5142C42.9598 6.83127 41.8252 6.1912 40.6224 5.65733C39.4195 5.12346 38.1484 4.65388 36.8545 4.2905C34.0619 3.50138 31.2022 3.15943 28.3651 3.2023C25.5281 3.26659 22.7366 3.73617 20.0806 4.63245C17.4245 5.52873 14.9278 6.83127 12.7041 8.51764C10.4793 10.204 8.55041 12.2538 7.02898 14.6017C6.62044 15.2427 6.23466 15.8828 5.89438 16.5442C6.50667 15.4775 7.18826 14.4526 7.95984 13.5134C8.73141 12.5743 9.57124 11.6985 10.4566 10.8879C13.8159 7.59993 18.1516 5.31538 22.8038 4.33337C27.457 3.35135 32.3823 3.65044 36.9 5.23062C38.6469 5.84925 40.3266 6.61791 41.8707 7.55706C43.4366 8.49621 44.867 9.60682 46.1609 10.8236C46.5012 11.1227 46.796 11.4637 47.1135 11.7842C47.431 12.1047 47.7041 12.4457 47.9988 12.7877C48.5667 13.4706 49.1107 14.1964 49.5875 14.9436C50.5411 16.4381 51.3354 18.0387 51.9032 19.7465C52.0387 20.1742 52.1753 20.6009 52.198 20.9429C52.2435 21.2838 52.2435 21.5401 52.1753 21.6472C52.1298 21.732 52.016 21.6472 51.9032 21.4339C51.8122 21.2195 51.6757 20.8786 51.5402 20.4518ZM18.3099 48.1606C16.6985 47.5849 15.1553 46.8376 13.7022 45.9414C16.4947 47.7768 19.6948 49.0793 23.0313 49.7408C26.3679 50.4023 29.8638 50.4237 33.2221 49.7837C30.7481 50.1461 28.1841 50.2104 25.6419 49.9542C23.1224 49.6765 20.6256 49.0793 18.3099 48.1606Z" fill="#AADCDC"/>
</g>
<path d="M25.9821 51.7691C23.9394 51.5557 21.9195 51.1066 19.9668 50.5094C18.0151 49.9112 16.1534 49.164 14.4282 48.3534C14.27 48.2677 14.1562 48.2463 14.2244 48.3106C14.2927 48.3953 14.4737 48.5025 14.6557 48.5882C16.3127 49.3569 18.1288 50.0827 20.0123 50.637C21.8967 51.2138 23.8939 51.6405 25.8456 51.8538C26.0731 51.8753 26.2769 51.8753 26.2996 51.8324C26.3452 51.8324 26.1859 51.7905 25.9821 51.7691Z" fill="#AADCDC"/>
<mask id="mask6_598_57" style="mask-type:luminance" maskUnits="userSpaceOnUse" x="0" y="0" width="44" height="48">
<path d="M0.191284 0.119812H43.9527V47.6355H0.191284V0.119812Z" fill="white"/>
</mask>
<g mask="url(#mask6_598_57)">
<path d="M12.0224 47.0938C9.36746 45.4289 6.96069 43.2505 5.05451 40.6678C3.17006 38.0852 1.74068 35.0963 0.991865 31.9369C0.242012 28.7775 0.129276 25.4466 0.696061 22.1801C1.26388 18.9145 2.53501 15.7336 4.39671 12.9152C7.41474 8.30423 11.8642 4.78144 16.926 2.66836C17.2435 2.54074 17.561 2.39071 17.8785 2.28452L18.8549 1.94256C19.5127 1.72921 20.1715 1.51586 20.8293 1.36583C21.4882 1.1739 22.1687 1.04628 22.8493 0.917684C23.5309 0.811494 24.2114 0.682897 24.9147 0.618599C25.5963 0.533841 26.2996 0.490976 27.0029 0.44811C27.3443 0.426677 27.7073 0.426677 28.0476 0.426677C28.3878 0.405244 28.7509 0.426677 29.0912 0.426677C29.4325 0.44811 29.7955 0.426677 30.1358 0.44811C30.4761 0.469543 30.8391 0.490976 31.1794 0.512409C31.5207 0.533841 31.8837 0.576707 32.224 0.618599C32.405 0.640031 32.5643 0.661464 32.7463 0.682897L33.2676 0.768628C35.1065 1.04628 36.9227 1.49442 38.6251 2.07116C40.3493 2.64693 41.9617 3.35129 43.4821 4.14138C43.7314 4.26998 43.9134 4.3333 43.8451 4.24854C43.7541 4.14138 43.5049 3.97089 43.2101 3.82086C40.0318 2.15592 36.5369 1.02485 32.9045 0.512409C29.2732 -3.16054e-05 25.5508 0.127591 21.9195 0.896251C18.3098 1.66491 14.8378 3.1165 11.7959 5.16626C8.79964 7.15172 6.18912 9.75582 4.26019 12.7662C2.39848 15.6265 1.12735 18.8287 0.583324 22.1382C0.015505 25.4466 0.129276 28.8194 0.900848 32.0431C1.67242 35.2668 3.12558 38.2985 5.10002 40.9026C7.0517 43.5067 9.5257 45.7055 12.25 47.3715C12.3855 47.4562 12.4993 47.4776 12.4537 47.4143C12.3627 47.3286 12.159 47.1786 12.0224 47.0938Z" fill="#AADCDC"/>
</g>
<path d="M22.0321 1.13107C20.1032 1.58018 18.2187 2.24168 16.4263 3.07366C14.6556 3.90662 12.9532 4.91007 11.4101 6.08401C9.84315 7.23651 8.39102 8.56048 7.11989 9.99063C5.82601 11.4422 4.6914 13.0224 3.71504 14.7088C2.6487 16.5238 1.87713 18.4664 1.37757 20.4723C0.878016 22.4792 0.628755 24.5718 0.741491 26.7277C0.787 28.1579 1.01454 29.5247 1.30931 30.8692C1.60408 32.1931 2.01262 33.4732 2.48942 34.7115C2.71696 35.3311 3.01173 35.9497 3.28375 36.5479C3.44303 36.847 3.57852 37.1451 3.7378 37.4442C3.89708 37.7433 4.05532 38.0423 4.23735 38.3414C4.91791 39.5154 5.66673 40.6679 6.55207 41.7989C6.66584 41.949 6.80237 42.0766 6.87063 42.098C6.89338 42.0766 6.82512 41.9704 6.71135 41.8204C4.84965 39.3653 3.39752 36.7398 2.39841 33.9643C1.42308 31.1897 0.923524 28.2436 0.991787 25.1904C1.0373 23.7817 1.21829 22.373 1.51306 20.9847C1.80887 19.6403 2.24016 18.2949 2.78419 16.9933C3.87432 14.3883 5.44022 11.9975 7.32468 9.88444C11.1598 5.67873 16.3353 2.64696 22.1004 1.23823C22.3507 1.17393 22.4862 1.13107 22.4862 1.08918C22.4634 1.06774 22.2597 1.08918 22.0321 1.13107Z" fill="#AADCDC"/>
<path d="M5.46295 24.3798C5.25817 26.151 5.28092 27.9874 5.57673 29.7799C5.87149 31.5735 6.41656 33.3456 7.21089 34.9891C8.00521 36.6326 9.02605 38.1271 10.1844 39.4296C11.3646 40.7321 12.6812 41.8203 14.0195 42.6962C14.1561 42.7809 14.2016 42.7809 14.1333 42.6747C14.0651 42.589 13.8841 42.4399 13.7703 42.3542C12.4536 41.4794 11.1825 40.3902 10.0934 39.0876C9.00329 37.7861 8.02797 36.3131 7.3019 34.7114C6.5748 33.1108 6.05353 31.403 5.78048 29.6738C5.53122 27.9445 5.48571 26.1724 5.66671 24.4646C5.68946 24.1441 5.71222 23.846 5.64499 23.8031C5.59948 23.8031 5.50846 24.0379 5.46295 24.3798Z" fill="#AADCDC"/>
<path d="M28.0248 51.2566C25.9821 51.2352 23.9394 50.979 21.9411 50.5094C19.9667 50.0398 18.0378 49.3355 16.2216 48.4596C14.4064 47.5848 12.7268 46.4956 11.1598 45.2788C9.61668 44.062 8.20902 42.6747 6.96065 41.1803C4.7142 38.2128 3.1483 34.84 2.35294 31.2958C2.26295 30.7834 2.10368 30.3781 2.03541 30.3995C1.9444 30.3995 1.96715 30.8477 2.05817 31.3601C2.4212 33.1751 3.01177 34.9462 3.78334 36.6326C3.73784 36.5907 3.69233 36.5907 3.69233 36.6121C0.878055 30.6772 0.628794 23.6959 3.03453 17.5476C3.17002 17.2066 3.23828 16.9504 3.19277 16.929C3.1483 16.9076 2.98902 17.1638 2.85249 17.5057C1.58137 20.707 1.03733 24.1655 1.21833 27.5607C1.40037 30.9548 2.33018 34.3062 3.91987 37.3379C4.00985 37.5727 4.14638 37.8289 4.30566 38.1056C5.00897 39.3653 5.82605 40.5607 6.7569 41.6713C7.66499 42.7809 8.68583 43.8058 9.77596 44.7664C11.9541 46.6671 14.4737 48.2249 17.2435 49.3774C19.2179 50.1889 21.2606 50.8085 23.326 51.1923C25.4143 51.5771 27.5025 51.7262 29.6134 51.6833C31.7244 51.6405 33.8126 51.3414 35.8326 50.8085C37.8752 50.2746 39.8507 49.5274 41.6886 48.5454C44.6167 46.9866 47.1134 44.8307 49.2244 42.3542C50.1097 41.3293 50.9496 40.1982 51.6529 39.0672C52.0159 38.4904 52.3117 37.9137 52.6065 37.3379C52.8785 36.7398 53.1288 36.163 53.3326 35.5873C54.4227 32.385 54.6037 29.3532 54.2862 26.5358C54.2634 26.3643 54.2406 26.3429 54.2179 26.4715C54.1951 26.5786 54.1724 26.8134 54.1951 26.9411C54.3317 28.3498 54.3317 29.8442 54.1269 31.3601C53.9459 32.8546 53.6056 34.3705 53.1743 35.7792C52.0387 38.4476 50.4273 40.924 48.4528 43.08C46.4556 45.2359 44.1171 47.0723 41.5076 48.5454C40.463 49.0578 39.3739 49.506 38.2838 49.8479C37.1947 50.2103 36.0828 50.4665 34.97 50.7013C32.7008 51.0861 30.4078 51.2995 28.0248 51.2566Z" fill="#AADCDC"/>
</g>
</g>
</g>
</g>
<defs>
<clipPath id="clip0_598_57">
<rect width="56" height="52" fill="white"/>
</clipPath>
</defs>
</svg>
